<?xml version="1.0" encoding="utf-8"?>
<svg version="1.1" xmlns:xlink="http://www.w3.org/1999/xlink" width="26px" height="24px" xmlns="http://www.w3.org/2000/svg">
  <g transform="matrix(1 0 0 1 -13 -56 )">
    <path d="M 0 5.14285714285714  L 13 0  L 26 5.14285714285714  L 26 6.85714285714286  L 24.2666666666667 6.85714285714286  C 24.2666666666667 7.08928571428571  24.1741319444444 7.29017857142857  23.9890625 7.45982142857143  C 23.8039930555556 7.62946428571428  23.5850694444444 7.71428571428571  23.3322916666667 8  L 2.66770833333333 8  C 2.41493055555556 7.71428571428571  2.19600694444444 7.62946428571428  2.0109375 7.45982142857143  C 1.82586805555556 7.29017857142857  1.73333333333333 7.08928571428571  1.73333333333333 6.85714285714286  L 0 6.85714285714286  L 0 5.14285714285714  Z M 3.46666666666667 18.8571428571429  L 3.46666666666667 8.57142857142857  L 7 8.57142857142857  L 7 18.8571428571429  L 9 18.8571428571429  L 9 8.57142857142857  L 12.1333333333333 8.57142857142857  L 12.1333333333333 18.8571428571429  L 13.8666666666667 18.8571428571429  L 13.8666666666667 8.57142857142857  L 17 8.57142857142857  L 17 18.8571428571429  L 19 18.8571428571429  L 19 8.57142857142857  L 22.5333333333333 8.57142857142857  L 22.5333333333333 18.8571428571429  L 23.3322916666667 18.8571428571429  C 23.5850694444444 18.8571428571429  23.8039930555556 18.9419642857143  23.9890625 19.1116071428571  C 24.1741319444444 19.28125  24.2666666666667 19.4821428571429  24.2666666666667 19.7142857142857  L 24.2666666666667 20.5714285714286  L 1.73333333333333 20.5714285714286  L 1.73333333333333 19.7142857142857  C 1.73333333333333 19.4821428571429  1.82586805555556 19.28125  2.0109375 19.1116071428571  C 2.19600694444444 18.9419642857143  2.41493055555556 18.8571428571429  2.66770833333333 18.8571428571429  L 3.46666666666667 18.8571428571429  Z M 0.934375 21  L 25.065625 21  C 25.3184027777778 21.4285714285714  25.5373263888889 21.5133928571429  25.7223958333333 21.6830357142857  C 25.9074652777778 21.8526785714286  26 22.0535714285714  26 22.2857142857143  L 26 24  L 0 24  L 0 22.2857142857143  C 0 22.0535714285714  0.0925347222222222 21.8526785714286  0.277604166666667 21.6830357142857  C 0.462673611111111 21.5133928571429  0.681597222222222 21.4285714285714  0.934375 21  Z " fill-rule="nonzero" fill="#ffffff" stroke="none" transform="matrix(1 0 0 1 13 56 )" />
  </g>
</svg>