<?xml version="1.0" encoding="utf-8"?>
<svg version="1.1" xmlns:xlink="http://www.w3.org/1999/xlink" width="20px" height="20px" xmlns="http://www.w3.org/2000/svg">
  <g transform="matrix(1 0 0 1 -3 -343 )">
    <path d="M 17.5390625 10  L 17.8125 10  C 18.41796875 10  18.9339192708333 10.2436755952381  19.3603515625 10.7310267857143  C 19.7867838541667 11.2183779761905  20 11.8080357142857  20 12.5  L 20 16.7857142857143  C 20 16.889880952381  19.970703125 16.9754464285714  19.912109375 17.0424107142857  C 19.853515625 17.109375  19.7786458333333 17.1428571428571  19.6875 17.1428571428571  L 18.75 17.1428571428571  L 18.75 17.8571428571429  C 18.75 18.452380952381  18.5677083333333 18.9583333333333  18.203125 19.375  C 17.8385416666667 19.7916666666667  17.3958333333333 20  16.875 20  C 16.3541666666667 20  15.9114583333333 19.7916666666667  15.546875 19.375  C 15.1822916666667 18.9583333333333  15 18.452380952381  15 17.8571428571429  L 15 17  L 5 17  L 5 17.8571428571429  C 5 18.452380952381  4.81770833333333 18.9583333333333  4.453125 19.375  C 4.08854166666667 19.7916666666667  3.64583333333333 20  3.125 20  C 2.60416666666667 20  2.16145833333333 19.7916666666667  1.796875 19.375  C 1.43229166666667 18.9583333333333  1.25 18.452380952381  1.25 17.8571428571429  L 1.25 17.1428571428571  L 0.3125 17.1428571428571  C 0.221354166666667 17.1428571428571  0.146484375 17.109375  0.087890625 17.0424107142857  C 0.029296875 16.9754464285714  0 16.889880952381  0 16.7857142857143  L 0 12.5  C 0 11.8080357142857  0.213216145833333 11.2183779761905  0.6396484375 10.7310267857143  C 1.06608072916667 10.2436755952381  1.58203125 10  2.1875 10  L 2.4609375 10  L 3.486328125 5.32366071428571  C 3.63606770833333 4.62425595238095  3.974609375 4.03831845238095  4.501953125 3.56584821428571  C 5.029296875 3.09337797619047  5.61197916666667 2.85714285714286  6.25 2.85714285714286  L 7.5 2.85714285714286  L 7.5 0.357142857142858  C 7.5 0.252976190476188  7.529296875 0.167410714285714  7.587890625 0.100446428571428  C 7.646484375 0.0334821428571419  7.72135416666667 0  7.8125 0  L 12.1875 0  C 12.2786458333333 0  12.353515625 0.0334821428571419  12.412109375 0.100446428571428  C 12.470703125 0.167410714285714  12.5 0.252976190476188  12.5 0.357142857142858  L 12.5 2.85714285714286  L 13.75 2.85714285714286  C 14.3880208333333 2.85714285714286  14.970703125 3.09337797619047  15.498046875 3.56584821428571  C 16.025390625 4.03831845238095  16.3639322916667 4.62425595238095  16.513671875 5.32366071428571  L 17.5390625 10  Z M 2.021484375 14.8325892857143  C 2.32747395833333 15.1822916666667  2.6953125 15.3571428571429  3.125 15.3571428571429  C 3.5546875 15.3571428571429  3.92252604166667 15.1822916666667  4.228515625 14.8325892857143  C 4.53450520833333 14.4828869047619  4.6875 14.0625  4.6875 13.5714285714286  C 4.6875 13.0803571428571  4.53450520833333 12.6599702380952  4.228515625 12.3102678571429  C 3.92252604166667 11.9605654761905  3.5546875 11.7857142857143  3.125 11.7857142857143  C 2.6953125 11.7857142857143  2.32747395833333 11.9605654761905  2.021484375 12.3102678571429  C 1.71549479166667 12.6599702380952  1.5625 13.0803571428571  1.5625 13.5714285714286  C 1.5625 14.0625  1.71549479166667 14.4828869047619  2.021484375 14.8325892857143  Z M 5.908203125 6.015625  L 5.0390625 10  L 14.9609375 10  L 14.091796875 6.015625  C 14.0787760416667 5.95610119047619  14.033203125 5.89099702380952  13.955078125 5.8203125  C 13.876953125 5.74962797619047  13.80859375 5.71428571428571  13.75 5.71428571428571  L 6.25 5.71428571428571  C 6.19140625 5.71428571428571  6.123046875 5.74962797619047  6.044921875 5.8203125  C 5.966796875 5.89099702380952  5.92122395833333 5.95610119047619  5.908203125 6.015625  Z M 15.771484375 14.8325892857143  C 16.0774739583333 15.1822916666667  16.4453125 15.3571428571429  16.875 15.3571428571429  C 17.3046875 15.3571428571429  17.6725260416667 15.1822916666667  17.978515625 14.8325892857143  C 18.2845052083333 14.4828869047619  18.4375 14.0625  18.4375 13.5714285714286  C 18.4375 13.0803571428571  18.2845052083333 12.6599702380952  17.978515625 12.3102678571429  C 17.6725260416667 11.9605654761905  17.3046875 11.7857142857143  16.875 11.7857142857143  C 16.4453125 11.7857142857143  16.0774739583333 11.9605654761905  15.771484375 12.3102678571429  C 15.4654947916667 12.6599702380952  15.3125 13.0803571428571  15.3125 13.5714285714286  C 15.3125 14.0625  15.4654947916667 14.4828869047619  15.771484375 14.8325892857143  Z " fill-rule="nonzero" fill="#000000" stroke="none" transform="matrix(1 0 0 1 3 343 )" />
  </g>
</svg>