<?xml version="1.0" encoding="utf-8"?>
<svg version="1.1" xmlns:xlink="http://www.w3.org/1999/xlink" width="20px" height="18px" xmlns="http://www.w3.org/2000/svg">
  <g transform="matrix(1 0 0 1 -3 -304 )">
    <path d="M 9.638671875 13.001953125  C 9.87955729166667 12.669921875  10 12.25390625  10 11.75390625  C 10 11.25390625  9.970703125 10.794921875  9.912109375 10.376953125  C 9.853515625 9.958984375  9.75748697916667 9.556640625  9.6240234375 9.169921875  C 9.49055989583333 8.783203125  9.29361979166667 8.478515625  9.033203125 8.255859375  C 8.77278645833334 8.033203125  8.45703125 7.921875  8.0859375 7.921875  C 8.046875 7.953125  7.94921875 8.0234375  7.79296875 8.1328125  C 7.63671875 8.2421875  7.5146484375 8.326171875  7.4267578125 8.384765625  C 7.3388671875 8.443359375  7.22330729166667 8.51171875  7.080078125 8.58984375  C 6.93684895833333 8.66796875  6.796875 8.724609375  6.66015625 8.759765625  C 6.5234375 8.794921875  6.38671875 8.8125  6.25 8.8125  C 6.11328125 8.8125  5.9765625 8.794921875  5.83984375 8.759765625  C 5.703125 8.724609375  5.56315104166667 8.66796875  5.419921875 8.58984375  C 5.27669270833333 8.51171875  5.1611328125 8.443359375  5.0732421875 8.384765625  C 4.9853515625 8.326171875  4.86328125 8.2421875  4.70703125 8.1328125  C 4.55078125 8.0234375  4.453125 7.953125  4.4140625 7.921875  C 4.04296875 7.921875  3.72721354166667 8.033203125  3.466796875 8.255859375  C 3.20638020833333 8.478515625  3.00944010416667 8.783203125  2.8759765625 9.169921875  C 2.74251302083333 9.556640625  2.646484375 9.958984375  2.587890625 10.376953125  C 2.529296875 10.794921875  2.5 11.25390625  2.5 11.75390625  C 2.5 12.25390625  2.62044270833333 12.669921875  2.861328125 13.001953125  C 3.10221354166667 13.333984375  3.3984375 13.5  3.75 13.5  L 8.75 13.5  C 9.1015625 13.5  9.39778645833333 13.333984375  9.638671875 13.001953125  Z M 7.8173828125 7.541015625  C 8.25032552083334 7.021484375  8.466796875 6.39453125  8.466796875 5.66015625  C 8.466796875 4.92578125  8.25032552083334 4.298828125  7.8173828125 3.779296875  C 7.38444010416667 3.259765625  6.86197916666667 3  6.25 3  C 5.63802083333333 3  5.11555989583333 3.259765625  4.6826171875 3.779296875  C 4.24967447916667 4.298828125  4.033203125 4.92578125  4.033203125 5.66015625  C 4.033203125 6.39453125  4.24967447916667 7.021484375  4.6826171875 7.541015625  C 5.11555989583333 8.060546875  5.63802083333333 8.3203125  6.25 8.3203125  C 6.86197916666667 8.3203125  7.38444010416667 8.060546875  7.8173828125 7.541015625  Z M 17.412109375 11.89453125  C 17.470703125 11.82421875  17.5 11.734375  17.5 11.625  L 17.5 10.875  C 17.5 10.765625  17.470703125 10.67578125  17.412109375 10.60546875  C 17.353515625 10.53515625  17.2786458333333 10.5  17.1875 10.5  L 11.5625 10.5  C 11.4713541666667 10.5  11.396484375 10.53515625  11.337890625 10.60546875  C 11.279296875 10.67578125  11.25 10.765625  11.25 10.875  L 11.25 11.625  C 11.25 11.734375  11.279296875 11.82421875  11.337890625 11.89453125  C 11.396484375 11.96484375  11.4713541666667 12  11.5625 12  L 17.1875 12  C 17.2786458333333 12  17.353515625 11.96484375  17.412109375 11.89453125  Z M 17.3974609375 8.876953125  C 17.4658203125 8.794921875  17.5 8.6953125  17.5 8.578125  L 17.5 7.921875  C 17.5 7.8046875  17.4658203125 7.705078125  17.3974609375 7.623046875  C 17.3291015625 7.541015625  17.24609375 7.5  17.1484375 7.5  L 11.6015625 7.5  C 11.50390625 7.5  11.4208984375 7.541015625  11.3525390625 7.623046875  C 11.2841796875 7.705078125  11.25 7.8046875  11.25 7.921875  L 11.25 8.578125  C 11.25 8.6953125  11.2841796875 8.794921875  11.3525390625 8.876953125  C 11.4208984375 8.958984375  11.50390625 9  11.6015625 9  L 17.1484375 9  C 17.24609375 9  17.3291015625 8.958984375  17.3974609375 8.876953125  Z M 17.412109375 5.89453125  C 17.470703125 5.82421875  17.5 5.734375  17.5 5.625  L 17.5 4.875  C 17.5 4.765625  17.470703125 4.67578125  17.412109375 4.60546875  C 17.353515625 4.53515625  17.2786458333333 4.5  17.1875 4.5  L 11.5625 4.5  C 11.4713541666667 4.5  11.396484375 4.53515625  11.337890625 4.60546875  C 11.279296875 4.67578125  11.25 4.765625  11.25 4.875  L 11.25 5.625  C 11.25 5.734375  11.279296875 5.82421875  11.337890625 5.89453125  C 11.396484375 5.96484375  11.4713541666667 6  11.5625 6  L 17.1875 6  C 17.2786458333333 6  17.353515625 5.96484375  17.412109375 5.89453125  Z M 19.541015625 0.550781250000001  C 19.8470052083333 0.917968749999999  20 1.359375  20 1.875  L 20 16.125  C 20 16.640625  19.8470052083333 17.08203125  19.541015625 17.44921875  C 19.2350260416667 17.81640625  18.8671875 18  18.4375 18  L 15 18  L 15 16.875  C 15 16.765625  14.970703125 16.67578125  14.912109375 16.60546875  C 14.853515625 16.53515625  14.7786458333333 16.5  14.6875 16.5  L 14.0625 16.5  C 13.9713541666667 16.5  13.896484375 16.53515625  13.837890625 16.60546875  C 13.779296875 16.67578125  13.75 16.765625  13.75 16.875  L 13.75 18  L 6.25 18  L 6.25 16.875  C 6.25 16.765625  6.220703125 16.67578125  6.162109375 16.60546875  C 6.103515625 16.53515625  6.02864583333333 16.5  5.9375 16.5  L 5.3125 16.5  C 5.22135416666667 16.5  5.146484375 16.53515625  5.087890625 16.60546875  C 5.029296875 16.67578125  5 16.765625  5 16.875  L 5 18  L 1.5625 18  C 1.1328125 18  0.764973958333333 17.81640625  0.458984375 17.44921875  C 0.152994791666667 17.08203125  0 16.640625  0 16.125  L 0 1.875  C 0 1.359375  0.152994791666667 0.917968749999999  0.458984375 0.550781250000001  C 0.764973958333333 0.183593749999998  1.1328125 0  1.5625 0  L 18.4375 0  C 18.8671875 0  19.2350260416667 0.183593749999998  19.541015625 0.550781250000001  Z " fill-rule="nonzero" fill="#000000" stroke="none" transform="matrix(1 0 0 1 3 304 )" />
  </g>
</svg>