<?xml version="1.0" encoding="utf-8"?>
<svg version="1.1" xmlns:xlink="http://www.w3.org/1999/xlink" width="20px" height="16px" xmlns="http://www.w3.org/2000/svg">
  <g transform="matrix(1 0 0 1 -3 -385 )">
    <path d="M 18.5677083333333 9.75480769230769  C 18.6336805555556 9.69391025641026  18.6666666666667 9.62179487179487  18.6666666666667 9.53846153846154  L 18.6666666666667 1.53846153846154  C 18.6666666666667 1.4551282051282  18.6336805555556 1.38301282051282  18.5677083333333 1.32211538461539  C 18.5017361111111 1.26121794871795  18.4236111111111 1.23076923076923  18.3333333333333 1.23076923076923  L 1.66666666666667 1.23076923076923  C 1.57638888888889 1.23076923076923  1.49826388888889 1.26121794871795  1.43229166666667 1.32211538461539  C 1.36631944444444 1.38301282051282  1.33333333333333 1.4551282051282  1.33333333333333 1.53846153846154  L 1.33333333333333 9.53846153846154  C 1.33333333333333 9.62179487179487  1.36631944444444 9.69391025641026  1.43229166666667 9.75480769230769  C 1.49826388888889 9.81570512820513  1.57638888888889 9.84615384615385  1.66666666666667 9.84615384615385  L 18.3333333333333 9.84615384615385  C 18.4236111111111 9.84615384615385  18.5017361111111 9.81570512820513  18.5677083333333 9.75480769230769  Z M 19.5104166666667 0.451923076923077  C 19.8368055555556 0.753205128205128  20 1.11538461538461  20 1.53846153846154  L 20 12  C 20 12.4230769230769  19.8368055555556 12.7852564102564  19.5104166666667 13.0865384615385  C 19.1840277777778 13.3878205128205  18.7916666666667 13.5384615384615  18.3333333333333 13.5384615384615  L 12.6666666666667 13.5384615384615  C 12.6666666666667 13.775641025641  12.7222222222222 14.0240384615385  12.8333333333333 14.2836538461538  C 12.9444444444444 14.5432692307692  13.0555555555556 14.7708333333333  13.1666666666667 14.9663461538462  C 13.2777777777778 15.161858974359  13.3333333333333 15.3012820512821  13.3333333333333 15.3846153846154  C 13.3333333333333 15.5512820512821  13.2673611111111 15.6955128205128  13.1354166666667 15.8173076923077  C 13.0034722222222 15.9391025641026  12.8472222222222 16  12.6666666666667 16  L 7.33333333333333 16  C 7.15277777777778 16  6.99652777777778 15.9391025641026  6.86458333333333 15.8173076923077  C 6.73263888888889 15.6955128205128  6.66666666666667 15.5512820512821  6.66666666666667 15.3846153846154  C 6.66666666666667 15.2948717948718  6.72222222222222 15.1538461538462  6.83333333333333 14.9615384615385  C 6.94444444444445 14.7692307692308  7.05555555555556 14.5448717948718  7.16666666666667 14.2884615384615  C 7.27777777777778 14.0320512820513  7.33333333333333 13.7820512820513  7.33333333333333 13.5384615384615  L 1.66666666666667 13.5384615384615  C 1.20833333333333 13.5384615384615  0.815972222222222 13.3878205128205  0.489583333333333 13.0865384615385  C 0.163194444444444 12.7852564102564  0 12.4230769230769  0 12  L 0 1.53846153846154  C 0 1.11538461538461  0.163194444444444 0.753205128205128  0.489583333333333 0.451923076923077  C 0.815972222222222 0.150641025641026  1.20833333333333 0  1.66666666666667 0  L 18.3333333333333 0  C 18.7916666666667 0  19.1840277777778 0.150641025641026  19.5104166666667 0.451923076923077  Z " fill-rule="nonzero" fill="#000000" stroke="none" transform="matrix(1 0 0 1 3 385 )" />
  </g>
</svg>