<?xml version="1.0" encoding="utf-8"?>
<svg version="1.1" xmlns:xlink="http://www.w3.org/1999/xlink" width="20px" height="20px" xmlns="http://www.w3.org/2000/svg">
  <g transform="matrix(1 0 0 1 -13 -220 )">
    <path d="M 4.16466346153846 18.1529017857143  C 4.46514423076923 17.8738839285714  4.61538461538462 17.5372023809524  4.61538461538462 17.1428571428571  C 4.61538461538462 16.7485119047619  4.46514423076923 16.4118303571429  4.16466346153846 16.1328125  C 3.86418269230769 15.8537946428571  3.50160256410256 15.7142857142857  3.07692307692308 15.7142857142857  C 2.65224358974359 15.7142857142857  2.28966346153846 15.8537946428571  1.98918269230769 16.1328125  C 1.68870192307692 16.4118303571429  1.53846153846154 16.7485119047619  1.53846153846154 17.1428571428571  C 1.53846153846154 17.5372023809524  1.68870192307692 17.8738839285714  1.98918269230769 18.1529017857143  C 2.28966346153846 18.4319196428571  2.65224358974359 18.5714285714286  3.07692307692308 18.5714285714286  C 3.50160256410256 18.5714285714286  3.86418269230769 18.4319196428571  4.16466346153846 18.1529017857143  Z M 8.78004807692308 18.1529017857143  C 9.08052884615385 17.8738839285714  9.23076923076923 17.5372023809524  9.23076923076923 17.1428571428571  C 9.23076923076923 16.7485119047619  9.08052884615385 16.4118303571429  8.78004807692308 16.1328125  C 8.47956730769231 15.8537946428571  8.11698717948718 15.7142857142857  7.69230769230769 15.7142857142857  C 7.26762820512821 15.7142857142857  6.90504807692308 15.8537946428571  6.60456730769231 16.1328125  C 6.30408653846154 16.4118303571429  6.15384615384615 16.7485119047619  6.15384615384615 17.1428571428571  C 6.15384615384615 17.5372023809524  6.30408653846154 17.8738839285714  6.60456730769231 18.1529017857143  C 6.90504807692308 18.4319196428571  7.26762820512821 18.5714285714286  7.69230769230769 18.5714285714286  C 8.11698717948718 18.5714285714286  8.47956730769231 18.4319196428571  8.78004807692308 18.1529017857143  Z M 4.16466346153846 13.8671875  C 4.46514423076923 13.5881696428571  4.61538461538462 13.2514880952381  4.61538461538462 12.8571428571429  C 4.61538461538462 12.4627976190476  4.46514423076923 12.1261160714286  4.16466346153846 11.8470982142857  C 3.86418269230769 11.5680803571429  3.50160256410256 11.4285714285714  3.07692307692308 11.4285714285714  C 2.65224358974359 11.4285714285714  2.28966346153846 11.5680803571429  1.98918269230769 11.8470982142857  C 1.68870192307692 12.1261160714286  1.53846153846154 12.4627976190476  1.53846153846154 12.8571428571429  C 1.53846153846154 13.2514880952381  1.68870192307692 13.5881696428571  1.98918269230769 13.8671875  C 2.28966346153846 14.1462053571429  2.65224358974359 14.2857142857143  3.07692307692308 14.2857142857143  C 3.50160256410256 14.2857142857143  3.86418269230769 14.1462053571429  4.16466346153846 13.8671875  Z M 13.3954326923077 18.1529017857143  C 13.6959134615385 17.8738839285714  13.8461538461538 17.5372023809524  13.8461538461538 17.1428571428571  C 13.8461538461538 16.7485119047619  13.6959134615385 16.4118303571429  13.3954326923077 16.1328125  C 13.0949519230769 15.8537946428571  12.7323717948718 15.7142857142857  12.3076923076923 15.7142857142857  C 11.8830128205128 15.7142857142857  11.5204326923077 15.8537946428571  11.2199519230769 16.1328125  C 10.9194711538462 16.4118303571429  10.7692307692308 16.7485119047619  10.7692307692308 17.1428571428571  C 10.7692307692308 17.5372023809524  10.9194711538462 17.8738839285714  11.2199519230769 18.1529017857143  C 11.5204326923077 18.4319196428571  11.8830128205128 18.5714285714286  12.3076923076923 18.5714285714286  C 12.7323717948718 18.5714285714286  13.0949519230769 18.4319196428571  13.3954326923077 18.1529017857143  Z M 8.78004807692308 13.8671875  C 9.08052884615385 13.5881696428571  9.23076923076923 13.2514880952381  9.23076923076923 12.8571428571429  C 9.23076923076923 12.4627976190476  9.08052884615385 12.1261160714286  8.78004807692308 11.8470982142857  C 8.47956730769231 11.5680803571429  8.11698717948718 11.4285714285714  7.69230769230769 11.4285714285714  C 7.26762820512821 11.4285714285714  6.90504807692308 11.5680803571429  6.60456730769231 11.8470982142857  C 6.30408653846154 12.1261160714286  6.15384615384615 12.4627976190476  6.15384615384615 12.8571428571429  C 6.15384615384615 13.2514880952381  6.30408653846154 13.5881696428571  6.60456730769231 13.8671875  C 6.90504807692308 14.1462053571429  7.26762820512821 14.2857142857143  7.69230769230769 14.2857142857143  C 8.11698717948718 14.2857142857143  8.47956730769231 14.1462053571429  8.78004807692308 13.8671875  Z M 4.16466346153846 9.58147321428571  C 4.46514423076923 9.30245535714286  4.61538461538462 8.96577380952381  4.61538461538462 8.57142857142857  C 4.61538461538462 8.17708333333333  4.46514423076923 7.84040178571429  4.16466346153846 7.56138392857143  C 3.86418269230769 7.28236607142857  3.50160256410256 7.14285714285714  3.07692307692308 7.14285714285714  C 2.65224358974359 7.14285714285714  2.28966346153846 7.28236607142857  1.98918269230769 7.56138392857143  C 1.68870192307692 7.84040178571429  1.53846153846154 8.17708333333333  1.53846153846154 8.57142857142857  C 1.53846153846154 8.96577380952381  1.68870192307692 9.30245535714286  1.98918269230769 9.58147321428571  C 2.28966346153846 9.86049107142857  2.65224358974359 10  3.07692307692308 10  C 3.50160256410256 10  3.86418269230769 9.86049107142857  4.16466346153846 9.58147321428571  Z M 13.3954326923077 13.8671875  C 13.6959134615385 13.5881696428571  13.8461538461538 13.2514880952381  13.8461538461538 12.8571428571429  C 13.8461538461538 12.4627976190476  13.6959134615385 12.1261160714286  13.3954326923077 11.8470982142857  C 13.0949519230769 11.5680803571429  12.7323717948718 11.4285714285714  12.3076923076923 11.4285714285714  C 11.8830128205128 11.4285714285714  11.5204326923077 11.5680803571429  11.2199519230769 11.8470982142857  C 10.9194711538462 12.1261160714286  10.7692307692308 12.4627976190476  10.7692307692308 12.8571428571429  C 10.7692307692308 13.2514880952381  10.9194711538462 13.5881696428571  11.2199519230769 13.8671875  C 11.5204326923077 14.1462053571429  11.8830128205128 14.2857142857143  12.3076923076923 14.2857142857143  C 12.7323717948718 14.2857142857143  13.0949519230769 14.1462053571429  13.3954326923077 13.8671875  Z M 8.78004807692308 9.58147321428571  C 9.08052884615385 9.30245535714286  9.23076923076923 8.96577380952381  9.23076923076923 8.57142857142857  C 9.23076923076923 8.17708333333333  9.08052884615385 7.84040178571429  8.78004807692308 7.56138392857143  C 8.47956730769231 7.28236607142857  8.11698717948718 7.14285714285714  7.69230769230769 7.14285714285714  C 7.26762820512821 7.14285714285714  6.90504807692308 7.28236607142857  6.60456730769231 7.56138392857143  C 6.30408653846154 7.84040178571429  6.15384615384615 8.17708333333333  6.15384615384615 8.57142857142857  C 6.15384615384615 8.96577380952381  6.30408653846154 9.30245535714286  6.60456730769231 9.58147321428571  C 6.90504807692308 9.86049107142857  7.26762820512821 10  7.69230769230769 10  C 8.11698717948718 10  8.47956730769231 9.86049107142857  8.78004807692308 9.58147321428571  Z M 18.0048076923077 18.1473214285714  C 18.3092948717949 17.8645833333333  18.4615384615385 17.5297619047619  18.4615384615385 17.1428571428571  L 18.4615384615385 12.8571428571429  C 18.4615384615385 12.4702380952381  18.3092948717949 12.1354166666667  18.0048076923077 11.8526785714286  C 17.7003205128205 11.5699404761905  17.3397435897436 11.4285714285714  16.9230769230769 11.4285714285714  C 16.5064102564103 11.4285714285714  16.1458333333333 11.5699404761905  15.8413461538462 11.8526785714286  C 15.536858974359 12.1354166666667  15.3846153846154 12.4702380952381  15.3846153846154 12.8571428571429  L 15.3846153846154 17.1428571428571  C 15.3846153846154 17.5297619047619  15.536858974359 17.8645833333333  15.8413461538462 18.1473214285714  C 16.1458333333333 18.4300595238095  16.5064102564103 18.5714285714286  16.9230769230769 18.5714285714286  C 17.3397435897436 18.5714285714286  17.7003205128205 18.4300595238095  18.0048076923077 18.1473214285714  Z M 13.3954326923077 9.58147321428571  C 13.6959134615385 9.30245535714286  13.8461538461538 8.96577380952381  13.8461538461538 8.57142857142857  C 13.8461538461538 8.17708333333333  13.6959134615385 7.84040178571429  13.3954326923077 7.56138392857143  C 13.0949519230769 7.28236607142857  12.7323717948718 7.14285714285714  12.3076923076923 7.14285714285714  C 11.8830128205128 7.14285714285714  11.5204326923077 7.28236607142857  11.2199519230769 7.56138392857143  C 10.9194711538462 7.84040178571429  10.7692307692308 8.17708333333333  10.7692307692308 8.57142857142857  C 10.7692307692308 8.96577380952381  10.9194711538462 9.30245535714286  11.2199519230769 9.58147321428571  C 11.5204326923077 9.86049107142857  11.8830128205128 10  12.3076923076923 10  C 12.7323717948718 10  13.0949519230769 9.86049107142857  13.3954326923077 9.58147321428571  Z M 18.2331730769231 5.50223214285714  C 18.3854166666667 5.36086309523809  18.4615384615385 5.19345238095238  18.4615384615385 5  L 18.4615384615385 2.14285714285714  C 18.4615384615385 1.94940476190476  18.3854166666667 1.78199404761905  18.2331730769231 1.640625  C 18.0809294871795 1.49925595238095  17.900641025641 1.42857142857143  17.6923076923077 1.42857142857143  L 2.30769230769231 1.42857142857143  C 2.09935897435897 1.42857142857143  1.91907051282051 1.49925595238095  1.76682692307692 1.640625  C 1.61458333333333 1.78199404761905  1.53846153846154 1.94940476190476  1.53846153846154 2.14285714285714  L 1.53846153846154 5  C 1.53846153846154 5.19345238095238  1.61458333333333 5.36086309523809  1.76682692307692 5.50223214285714  C 1.91907051282051 5.64360119047619  2.09935897435897 5.71428571428571  2.30769230769231 6  L 17.6923076923077 6  C 17.900641025641 5.71428571428571  18.0809294871795 5.64360119047619  18.2331730769231 5.50223214285714  Z M 18.0108173076923 9.58147321428571  C 18.3112980769231 9.30245535714286  18.4615384615385 8.96577380952381  18.4615384615385 8.57142857142857  C 18.4615384615385 8.17708333333333  18.3112980769231 7.84040178571429  18.0108173076923 7.56138392857143  C 17.7103365384615 7.28236607142857  17.3477564102564 7.14285714285714  16.9230769230769 7.14285714285714  C 16.4983974358974 7.14285714285714  16.1358173076923 7.28236607142857  15.8353365384615 7.56138392857143  C 15.5348557692308 7.84040178571429  15.3846153846154 8.17708333333333  15.3846153846154 8.57142857142857  C 15.3846153846154 8.96577380952381  15.5348557692308 9.30245535714286  15.8353365384615 9.58147321428571  C 16.1358173076923 9.86049107142857  16.4983974358974 10  16.9230769230769 10  C 17.3477564102564 10  17.7103365384615 9.86049107142857  18.0108173076923 9.58147321428571  Z M 19.5432692307692 0.424107142857142  C 19.8477564102564 0.706845238095237  20 1.04166666666667  20 1.42857142857143  L 20 18.5714285714286  C 20 18.9583333333333  19.8477564102564 19.2931547619048  19.5432692307692 19.5758928571429  C 19.2387820512821 19.858630952381  18.8782051282051 20  18.4615384615385 20  L 1.53846153846154 20  C 1.12179487179487 20  0.761217948717949 19.858630952381  0.456730769230769 19.5758928571429  C 0.15224358974359 19.2931547619048  0 18.9583333333333  0 18.5714285714286  L 0 1.42857142857143  C 0 1.04166666666667  0.15224358974359 0.706845238095237  0.456730769230769 0.424107142857142  C 0.761217948717949 0.141369047619049  1.12179487179487 0  1.53846153846154 0  L 18.4615384615385 0  C 18.8782051282051 0  19.2387820512821 0.141369047619049  19.5432692307692 0.424107142857142  Z " fill-rule="nonzero" fill="#ffffff" stroke="none" transform="matrix(1 0 0 1 13 220 )" />
  </g>
</svg>