<?xml version="1.0" encoding="utf-8"?>
<svg version="1.1" xmlns:xlink="http://www.w3.org/1999/xlink" width="12px" height="12px" viewBox="145 208.5  12 12" xmlns="http://www.w3.org/2000/svg">
  <path d="M 151 208.5  C 154.36 208.5  157 211.14  157 214.5  C 157 217.86  154.36 220.5  151 220.5  C 147.64 220.5  145 217.86  145 214.5  C 145 211.14  147.64 208.5  151 208.5  Z " fill-rule="nonzero" fill="#ffffff" stroke="none" />
  <path d="M 151 209  C 154.08 209  156.5 211.42  156.5 214.5  C 156.5 217.58  154.08 220  151 220  C 147.92 220  145.5 217.58  145.5 214.5  C 145.5 211.42  147.92 209  151 209  Z " stroke-width="1" stroke="#797979" fill="none" />
  <path d="M 151 217.5  C 149.32 217.5  148 216.18  148 214.5  C 148 212.82  149.32 211.5  151 211.5  C 152.68 211.5  154 212.82  154 214.5  C 154 216.18  152.68 217.5  151 217.5  " fill-rule="nonzero" fill="#797979" stroke="none" />
</svg>