<?xml version="1.0" encoding="utf-8"?>
<svg version="1.1" xmlns:xlink="http://www.w3.org/1999/xlink" width="12px" height="12px" viewBox="333 35.5  12 12" xmlns="http://www.w3.org/2000/svg">
  <path d="M 339 35.5  C 342.36 35.5  345 38.14  345 41.5  C 345 44.86  342.36 47.5  339 47.5  C 335.64 47.5  333 44.86  333 41.5  C 333 38.14  335.64 35.5  339 35.5  Z " fill-rule="nonzero" fill="#ffffff" stroke="none" />
  <path d="M 339 36  C 342.08 36  344.5 38.42  344.5 41.5  C 344.5 44.58  342.08 47  339 47  C 335.92 47  333.5 44.58  333.5 41.5  C 333.5 38.42  335.92 36  339 36  Z " stroke-width="1" stroke="#797979" fill="none" />
  <path d="M 339 44.5  C 337.32 44.5  336 43.18  336 41.5  C 336 39.82  337.32 38.5  339 38.5  C 340.68 38.5  342 39.82  342 41.5  C 342 43.18  340.68 44.5  339 44.5  " fill-rule="nonzero" fill="#797979" stroke="none" />
</svg>