<?xml version="1.0" encoding="utf-8"?>
<svg version="1.1" xmlns:xlink="http://www.w3.org/1999/xlink" width="12px" height="12px" viewBox="376 55  12 12" xmlns="http://www.w3.org/2000/svg">
  <path d="M 382 55  C 385.36 55  388 57.64  388 61  C 388 64.36  385.36 67  382 67  C 378.64 67  376 64.36  376 61  C 376 57.64  378.64 55  382 55  Z " fill-rule="nonzero" fill="#ffffff" stroke="none" />
  <path d="M 382 55.5  C 385.08 55.5  387.5 57.92  387.5 61  C 387.5 64.08  385.08 66.5  382 66.5  C 378.92 66.5  376.5 64.08  376.5 61  C 376.5 57.92  378.92 55.5  382 55.5  Z " stroke-width="1" stroke="#797979" fill="none" />
  <path d="M 382 64  C 380.32 64  379 62.68  379 61  C 379 59.32  380.32 58  382 58  C 383.68 58  385 59.32  385 61  C 385 62.68  383.68 64  382 64  " fill-rule="nonzero" fill="#797979" stroke="none" />
</svg>