<?xml version="1.0" encoding="utf-8"?>
<svg version="1.1" xmlns:xlink="http://www.w3.org/1999/xlink" width="12px" height="12px" viewBox="287 20  12 12" xmlns="http://www.w3.org/2000/svg">
  <path d="M 293 20  C 296.36 20  299 22.64  299 26  C 299 29.36  296.36 32  293 32  C 289.64 32  287 29.36  287 26  C 287 22.64  289.64 20  293 20  Z " fill-rule="nonzero" fill="#ffffff" stroke="none" />
  <path d="M 293 20.5  C 296.08 20.5  298.5 22.92  298.5 26  C 298.5 29.08  296.08 31.5  293 31.5  C 289.92 31.5  287.5 29.08  287.5 26  C 287.5 22.92  289.92 20.5  293 20.5  Z " stroke-width="1" stroke="#797979" fill="none" />
  <path d="M 293 29  C 291.32 29  290 27.68  290 26  C 290 24.32  291.32 23  293 23  C 294.68 23  296 24.32  296 26  C 296 27.68  294.68 29  293 29  " fill-rule="nonzero" fill="#797979" stroke="none" />
</svg>